<svg height="512pt" viewBox="-15 0 512 512.00035" width="512pt" xmlns="http://www.w3.org/2000/svg"><path d="m158.210938 502.859375 2.488281-78.652344 1.308593-.449219c13.640626-4.667968 24.910157-15.253906 30.140626-28.3125 6.015624-15.011718 3.757812-32.984374-5.75-45.792968-1.078126-1.453125-2.316407-2.90625-3.671876-4.3125l-1.753906-1.816406 36.511719-21.710938 1.878906 79.007812h-2.636719l-.226562-.054687c-.125-.027344-.308594-.046875-.476562-.046875-1.089844.011719-1.988282.921875-1.988282 2.03125l.558594 27.019531c.027344 1.292969.078125 3.980469 2.140625 5.503907 1.1875.886718 2.589844.988281 3.539063.988281.304687 0 .578124-.011719.816406-.019531l5.3125-.21875-1.179688 42.882812c-.015625.554688.210938 1.105469.613282 1.511719.375.363281.867187.566406 1.40625.566406 14.574218-.605469 29.304687-.90625 43.886718-.90625 31.222656 0 62.722656 1.386719 93.628906 4.121094l.152344.019531c1.050782-.007812 1.890625-.742188 2.03125-1.753906 4.128906-29.320313 5.898438-59.25 5.269532-88.960938-.054688-2.355468-.140626-5.875-2.28125-8.472656-2.917969-3.535156-8.074219-3.550781-10.84375-3.5625l-115.964844-.617188c-.046875 0-.316406.035157-.316406.035157l-2.074219.230469-.144531-2.082032c-1.523438-22.367187-2.320313-45.125-2.375-67.652344v-1.414062l1.332031-.472656c.066406-.023438.121093-.054688.1875-.085938l10.644531-5.691406.800781 2.140625c2.277344 6.0625 5.6875 10.984375 10.144531 14.621094 8.84375 7.214843 20.667969 8.460937 29.984376 8.742187 1.113281.027344 2.277343.046875 3.46875.046875 7.066406 0 17.445312-.660156 25.941406-6.386719 5.300781-3.566406 9.625-9.085937 12.503906-15.964843l.867188-2.074219 72.40625 40.816406-1.691407 1.855469c-3.65625 4.015625-6.496093 8.507813-8.441406 13.351563-2 4.984374-3.015625 10.375-3.015625 16.023437 0 13.78125 6.238281 27.265625 16.277344 35.191406 3.757812 2.976563 8.09375 5.269531 12.898437 6.828125l1.609375.519532-.246094 1.675781c-4.039062 27.199219-5.90625 54.882812-5.550781 82.289062l.027344 2.046875zm0 0" fill="#b2eaf9"/><path d="m301.484375 265.40625c-10.992187 0-22.148437-1.21875-32.636719-2.46875-16.761718-2.011719-32.738281-4.667969-44.050781-14.945312-7.1875-6.542969-14.972656-17.359376-18.210937-47.960938-3.015626-28.535156-3.425782-57.492188-1.214844-86.074219 1.6875-21.816406 5.503906-46.398437 21.050781-63.328125 11.296875-12.316406 28.953125-20.199218 49.722656-22.199218 2.964844-.285157 6.046875-.421876 9.429688-.421876 6.960937 0 13.867187.589844 20.550781 1.160157 6.421875.554687 13.695312 1.183593 20.789062 1.183593 1.792969 0 3.542969-.039062 5.207032-.117187.445312-.023437.902344-.03125 1.363281-.03125 5.148437 0 22.894531 1.683594 35.132813 23.386719 7.472656 13.261718 9.960937 28.445312 11.402343 47.160156 2.199219 28.707031 1.964844 57.761719-.703125 86.355469-1.933594 20.742187-5.605468 42.003906-19.25 57.023437-9.695312 10.671875-24.773437 17.871094-42.453125 20.265625-5.0625.679688-10.335937 1.011719-16.128906 1.011719zm-5.171875-69.144531c-13.054688 0-25.828125 2.082031-37.96875 6.195312-7.203125 2.441407-15.996094 7.152344-16.953125 15.714844-.492187 4.390625 1.410156 9.183594 5.089844 12.816406 3.296875 3.261719 7.527343 5.273438 11.230469 6.816407 12.253906 5.09375 25.253906 7.675781 38.632812 7.675781 9.238281 0 18.398438-1.261719 27.230469-3.746094 5.59375-1.582031 12.5625-4.132813 16.804687-9.847656 4.289063-5.765625 4.792969-13.84375 1.265625-20.101563-4.679687-8.265625-16.230469-13.316406-34.335937-15.011718-3.625-.34375-7.324219-.511719-10.996094-.511719zm2.28125-76.175781c-10.785156 0-21.628906.496093-32.214844 1.476562-10.507812.964844-22.519531 2.570312-32.144531 9.425781-12.21875 8.714844-14.484375 22.546875-10.414063 31.136719 3.507813 7.394531 11.390626 12.5625 24.097657 15.796875 13.308593 3.375 27.527343 5.019531 43.464843 5.019531 8.566407 0 17.496094-.460937 27.3125-1.402344 9.355469-.898437 17.125-2.046874 24.601563-4.742187 8.980469-3.230469 16.128906-8.375 20.667969-14.882813 5.21875-7.476562 6.46875-17.777343 3.1875-26.242187-2.652344-6.828125-7.960938-11.453125-14.945313-13.019531-2.84375-.644532-5.730469-.730469-8.179687-.730469-1.0625 0-2.117188.015625-3.160156.035156l-.195313.003907c-1.09375.023437-2.164063.042968-3.199219.042968-1.558594 0-2.8125-.046875-3.949218-.152344-11.949219-1.09375-22.015626-1.652343-31.679688-1.753906-1.078125-.007812-2.164062-.011718-3.25-.011718zm0 0" fill="#b2eaf9"/><path d="m218.671875 432.191406v-2c0-.097656-.003906-.210937-.011719-.34375l-.515625-24.957031 1.96875-.070313c1.40625-.050781 3.136719-.117187 5.328125-.21875l.609375-.023437c3.691407-.152344 9.269531-.375 12.671875-.375 1.148438 0 1.976563.023437 2.523438.078125l.601562.054688.46875.382812c1.339844 1.089844 2.613282 3.699219 2.855469 15.289062.042969 2.09375.082031 3.671876.222656 4.984376.308594 3.039062.0625 4.617187-.847656 5.449218-.613281.546875-1.457031.867188-4.011719.949219l-19.519531.785156c-.144531.015625-.261719.015625-.34375.015625zm0 0" fill="#696b77"/><path d="m150.6875 294.625c.226562-10.394531.4375-21.039062.636719-32.539062l.035156-1.941407 21.589844-.261719-2.933594 31.671876c-.226563 2.402343-.546875 3.238281-.960937 3.753906l-.230469.292968-.324219.1875c-.574219.335938-1.316406.460938-2.933594.492188l-14.925781.453125zm0 0" fill="#696b77"/><path d="m87.277344 250.546875c-.195313-.621094-.691406-1.121094-1.316406-1.328125-.1875-.066406-.402344-.097656-.625-.097656-.445313 0-.859376.132812-1.199219.382812l-14.683594 10.785156-1.703125-25.484374c-.089844-1.40625-.34375-3.140626-.613281-4.976563l-.039063-.269531c-1.058594-7.140625-1.859375-14.34375.898438-17.121094.917968-.925781 2.21875-1.394531 3.863281-1.394531 3.566406 0 8.355469 2.21875 11.855469 3.839843l.574218.265626c1.238282.570312 2.410157 1.109374 3.425782 1.488281l24.628906 9.316406-12.996094 14.1875c-.695312.765625-.703125 1.964844-.015625 2.734375l15.1875 16.902344-19.695312 15.003906zm0 0" fill="#fff"/><path d="m291.402344 178.878906c-15.617188 0-29.515625-1.601562-42.492188-4.898437-11.449218-2.90625-18.457031-7.355469-21.421875-13.601563-3.414062-7.195312-.941406-18.914062 9.105469-26.078125 8.800781-6.277343 20.179688-7.777343 30.15625-8.691406 10.394531-.964844 21.007812-1.457031 31.542969-1.457031 1.171875 0 2.339843.007812 3.511719.019531 9.519531.089844 19.476562.640625 31.34375 1.726563 1.292968.121093 2.710937.175781 4.460937.175781 1.085937 0 2.167969-.023438 3.234375-.042969 1.164062-.023438 2.246094-.042969 3.304688-.042969 2.175781 0 4.726562.074219 7.164062.621094 7.199219 1.621094 10.527344 6.625 12.054688 10.535156 2.761718 7.125 1.664062 16.148438-2.730469 22.453125-5.125 7.34375-13.003907 11.328125-18.707031 13.375-7.058594 2.546875-14.550782 3.652344-23.621094 4.53125-9.707032.925782-18.507813 1.375-26.90625 1.375zm0 0" fill="#ed6d66"/><path d="m324.0625 448.03125c-.230469 0-.460938-.007812-.6875-.027344-3.101562-.269531-5.808594-2.183594-9.019531-4.660156l-11.46875-8.808594c-5.042969-3.867187-10.4375-8.484375-10.601563-14.339844-.113281-4.503906 3.402344-9.0625 8.171875-10.617187 1.371094-.441406 2.84375-.660156 4.382813-.660156 2.636718 0 5.398437.65625 7.992187 1.898437 1 .488282 2.199219 1.496094 3.359375 2.472656 2.316406 1.957032 4.910156 4.144532 7.886719 4.144532.300781 0 .601563-.019532.902344-.0625 4.46875-.644532 7.011719-4.394532 9.472656-8.023438 2.945313-4.367187 4.972656-6.996094 8.550781-6.996094.558594 0 1.140625.066407 1.769532.203126 2.480468.554687 4.617187 2.976562 5.3125 6.03125.597656 2.585937.351562 5.550781-.796876 9.601562-2.660156 9.328125-7.78125 17.789062-14.808593 24.460938-3.757813 3.570312-7.261719 5.382812-10.417969 5.382812zm0 0" fill="#ed6d66"/><path d="m6.191406 118.640625c-.046875-3.945313-.097656-7.886719-.125-11.824219-.027344-2.847656.050782-5.351562 1.230469-7.203125 2.09375-3.265625 6.898437-3.714843 11.777344-3.714843 6.875.011718 13.761719.039062 20.613281.089843l1.980469.015625.09375 27.75-35.503907.453125zm0 0" fill="#ed6d66"/><path d="m85.347656 96.324219 1.945313.007812c4.015625.015625 8.042969.023438 12.070312.023438 18.253907 0 33.296875-.199219 47.351563-.625l2.058594-.0625v2.0625c0 7.550781-.007813 15.113281-.027344 22.6875l-.007813 1.96875-64.261719.820312zm0 0" fill="#cbe580"/><path d="m134.015625 313.96875-120.78125-1.066406-.117187-1.859375c-3.703126-59.804688-5.992188-120.625-6.800782-180.765625l-.027344-2.003906 142.433594-1.832032-.007812 2.035156c-.210938 56.285157-.933594 113.207032-2.148438 169.1875l-.007812.300782-.097656.289062c-.070313.21875-.105469.425782-.097657.609375.003907.164063.03125.324219.085938.519531l.070312.273438-.035156 1.800781c-.089844 4.042969-.386719 8.132813-2.894531 10.386719-2.179688 1.964844-5.652344 2.128906-8.742188 2.128906zm-42.203125-35.214844c.199219.640625.691406 1.140625 1.320312 1.339844.203126.0625.417969.097656.621094.097656.4375 0 .871094-.152344 1.230469-.421875l23.746094-18.089843c.445312-.339844.734375-.867188.792969-1.433594.054687-.558594-.128907-1.121094-.503907-1.535156l-15.4375-17.183594 13.777344-15.039063c.457031-.496093.636719-1.1875.476563-1.84375-.152344-.65625-.621094-1.1875-1.246094-1.421875l-27.433594-10.382812c-1.015625-.382813-2.320312-.984375-3.679688-1.617188-3.851562-1.789062-9.132812-4.242187-13.738281-4.242187-2.722656 0-4.890625.851562-6.625 2.597656-4.410156 4.4375-3.097656 13.367187-2.046875 20.542969.304688 2.039062.539063 3.675781.632813 4.945312l1.9375 29.191406c.050781.742188.5 1.398438 1.171875 1.710938.265625.121094.554687.1875.851562.1875.4375 0 .855469-.140625 1.214844-.398438l15.363281-11.289062zm-67.257812-79.765625c-1.085938 0-1.992188.890625-2.023438 1.984375-.011719.542969.1875 1.0625.558594 1.457032.371094.386718.871094.609374 1.410156.621093l16.132812.429688c1.097657 0 2.007813-.882813 2.03125-1.964844.015626-.550781-.183593-1.066406-.554687-1.460937-.375-.394532-.878906-.621094-1.417969-.632813zm1.300781-19.386719c-1.109375 0-2.023438.910157-2.03125 2.027344-.003907 1.109375.902343 2.027344 2.019531 2.03125l48.664062.289063c1.121094 0 2.03125-.90625 2.035157-2.019531.007812-.546876-.199219-1.058594-.582031-1.441407-.378907-.386719-.890626-.601562-1.433594-.609375l-48.65625-.277344-.015625-2zm63.441406-.953124c-1.128906 0-2.023437.878906-2.03125 2-.007813.550781.195313 1.0625.574219 1.449218.378906.386719.890625.605469 1.429687.613282l19.558594.21875c1.125 0 2.035156-.898438 2.046875-2.007813.007812-.546875-.199219-1.054687-.578125-1.445313-.378906-.386718-.882813-.601562-1.417969-.605468l-19.566406-.222656-.015625-2zm-39.164063-14.707032-24.742187.4375c-1.121094.019532-2.015625.945313-1.996094 2.0625.019531 1.121094.910157 1.996094 2.027344 1.996094l24.796875-.4375c1.121094-.019531 2.015625-.945312 1.996094-2.0625-.015625-1.125-.921875-1.996094-2.0625-1.996094v-2zm-26.964843-19.402344c-.542969.019532-1.042969.253907-1.410157.652344-.367187.398438-.558593.917969-.535156 1.457032.046875 1.089843.9375 1.941406 2.03125 1.941406h.167969l33.777344-1.417969c.550781-.023437 1.050781-.253906 1.417969-.65625.367187-.394531.554687-.910156.527343-1.445313-.042969-1.082031-.9375-1.953124-1.996093-1.953124zm82.65625-1.582031c-1.109375 0-2.011719.847657-2.0625 1.933594-.023438.542969.164062 1.066406.527343 1.464844.367188.398437.863282.632812 1.402344.65625l22.609375 1.03125.09375-.003907c1.085938 0 1.980469-.851562 2.027344-1.941406.054687-1.113281-.820313-2.0625-1.949219-2.121094zm-28.710938.382813c-1.082031 0-1.988281.882812-2.019531 1.964844-.019531.554687.179688 1.070312.550781 1.464843.371094.394531.871094.617188 1.414063.632813l11.363281.339844c1.105469 0 1.992187-.863282 2.023437-1.964844.015626-.546875-.179687-1.0625-.550781-1.457032-.371093-.394531-.875-.621093-1.414062-.640624l-11.296875-.339844zm0 0" fill="#bfc7d8"/><path d="m309.515625 201.0625 2.210937.308594c13.917969 1.917968 22.792969 6.089844 26.378907 12.402344 2.710937 4.816406 2.304687 11.265624-.984375 15.691406-3.535156 4.75-9.6875 6.957031-14.65625 8.351562-3.816406 1.074219-7.738282 1.921875-11.664063 2.511719l-2.359375.355469zm0 0" fill="#f9d889"/><path d="m296.355469 241.417969c-7.539063 0-15.105469-.890625-22.484375-2.640625l-1.890625-.449219.394531-1.90625c.03125-.152344.046875-.316406.046875-.492187l-.621094-32.988282 1.636719-.328125c7.515625-1.519531 15.210938-2.292969 22.867188-2.292969 2.347656 0 4.78125.078126 7.234374.234376l1.925782.121093-1.101563 40.421875-1.820312.121094c-2.046875.128906-4.128907.199219-6.1875.199219zm0 0" fill="#f9d889"/><path d="m265.699219 236.4375c-2.503907-.839844-4.550781-1.597656-6.441407-2.394531-3.304687-1.363281-7.078124-3.144531-9.921874-5.953125-2.796876-2.761719-4.257813-6.300782-3.898438-9.464844.710938-6.429688 8.121094-10.25 14.214844-12.320312 1.65625-.5625 3.4375-1.113282 5.613281-1.722657l2.488281-.699219.632813 33.453126zm0 0" fill="#f9d889"/><path d="m45.726562 96.039062 2.019532.011719c3.53125.019531 7.054687.046875 10.53125.078125 6.972656.0625 13.941406.121094 20.949218.160156l2.054688.011719-.867188 26.953125-34.59375.453125zm0 0" fill="#f9d889"/><path d="m436.460938 417.078125c-9.011719 0-17.644532-2.90625-24.316407-8.179687-13.277343-10.488282-18.445312-30.488282-12.015625-46.523438 1.402344-3.480469 3.316406-6.773438 5.695313-9.792969 2.363281-3.003906 5.1875-5.738281 8.394531-8.125 7.472656-5.527343 15.660156-8.449219 23.683594-8.449219 4.375 0 8.601562.863282 12.558594 2.5625 12.546874 5.378907 22.089843 16.6875 24.90625 29.519532 3.492187 15.949218-3.8125 33.925781-17.363282 42.753906-6.261718 4.078125-13.710937 6.234375-21.542968 6.234375zm0 0" fill="#5bd0fc"/><path d="m382.898438 191.960938c.167968-1.457032.316406-2.945313.464843-4.484376 1.832031-19.675781 2.53125-39.757812 2.074219-59.679687l-.078125-3.269531 2.945313 1.421875c12.75 6.160156 21.28125 19.675781 21.230468 33.628906-.066406 14.929687-9.90625 29.105469-23.933594 34.480469l-3.082031 1.179687zm0 0" fill="#5bd0fc"/><path d="m263.085938 22.789062c7.890624-10.097656 20.605468-16.5 33.195312-16.71875.234375-.003906.472656-.007812.710938-.007812 13.054687 0 26.140624 6.503906 34.152343 16.972656l2.382813 3.113282-3.921875.101562c-.933594.023438-1.867188.035156-2.796875.035156-6.675782 0-13.265625-.5625-20.238282-1.15625-6.914062-.585937-13.964843-1.1875-21.023437-1.1875-3.5 0-6.703125.144532-9.800781.4375-3.472656.335938-7.070313.875-10.6875 1.601563l-5.292969 1.0625zm0 0" fill="#5bd0fc"/><path d="m199.457031 198.46875c-13.25-4.851562-23.117187-18.378906-23.460937-32.167969-.351563-13.765625 8.429687-27.378906 21.347656-33.097656l2.910156-1.289063-.101562 3.179688c-.65625 20.375.011718 41 1.980468 61.300781l.308594 3.167969zm0 0" fill="#5bd0fc"/><path d="m146.078125 422.332031c-11.460937 0-22.96875-4.210937-31.570313-11.550781-8.417968-7.175781-13.621093-16.8125-14.277343-26.433594-.730469-10.664062 4.25-22.347656 13.320312-31.265625 4.828125-4.734375 10.574219-9.019531 16.1875-12.070312 6.976563-3.796875 13.601563-5.722657 19.683594-5.722657.085937 0 .371094.011719.371094.011719 13.234375.1875 25.6875 6.460938 33.347656 16.777344 8.683594 11.695313 10.742187 28.125 5.238281 41.855469-5.457031 13.632812-17.902344 24.105468-32.472656 27.339844-3.175781.703124-6.484375 1.058593-9.828125 1.058593zm0 0" fill="#5bd0fc"/><path d="m422.433594 505.480469-.027344-1.953125c-.101562-7.160156-.046875-14.339844.160156-21.347656l.066406-2.339844 2.304688.4375c5.011719.949218 10.144531 1.433594 15.257812 1.433594 7.304688 0 14.601563-.984376 21.691407-2.929688l2.328125-.636719 2.207031 27.769531zm0 0" fill="#288fc9"/><path d="m440.199219 477.640625c-5.273438 0-10.566407-.539063-15.730469-1.601563l-1.667969-.34375.074219-1.703124c.402344-9.136719 1.082031-18.542969 2.019531-27.960938l.265625-2.660156 2.476563 1.003906c6.964843 2.824219 14.304687 4.253906 21.816406 4.253906 3.359375 0 6.773437-.304687 10.160156-.910156l2.167969-.386719 2.113281 26.644531-1.554687.460938c-7.191406 2.125-14.640625 3.203125-22.140625 3.203125zm0 0" fill="#288fc9"/><path d="m449.449219 444.5625c-7.722657 0-15.503907-1.699219-22.5-4.914062l-1.320313-.605469.167969-1.445313c.5625-4.835937 1.222656-9.832031 2.019531-15.265625l.285156-1.96875 1.96875.273438c2.140626.300781 4.300782.453125 6.421876.453125 7.039062 0 13.976562-1.644532 20.0625-4.75l2.664062-1.363282 2.238281 28.253907-1.75.34375c-3.363281.652343-6.8125.988281-10.257812.988281zm0 0" fill="#288fc9"/><path d="m361.292969 479.824219c-24.460938-2.074219-49.402344-3.316407-74.140625-3.683594l-2.035156-.03125 1.027343-31.515625c.035157-1.117188-.847656-2.058594-1.964843-2.09375 0 0 0 0-.003907 0-1.167969 0-2.058593.863281-2.09375 1.964844l-1.035156 31.601562-1.949219-.015625c-2.707031-.019531-5.414062-.03125-8.117187-.03125-13.238281 0-26.527344.25-39.5.738281l-2.136719.082032.507812-18.550782 1.703126-.210937c4.738281-.597656 9.558593-.898437 14.320312-.898437 5.074219 0 10.191406.339843 15.207031 1.019531.082031.011719.171875.015625.261719.015625 1.011719 0 1.882812-.757813 2.019531-1.765625.070313-.535157-.070312-1.070313-.398437-1.5-.328125-.429688-.804688-.703125-1.34375-.773438-5.191406-.703125-10.488282-1.058593-15.746094-1.058593-4.519531 0-9.101562.261718-13.613281.78125l-2.292969.265624.507812-18.292968 10.246094-.417969c1.792969-.074219 4.492188-.183594 6.476563-1.9375 2.875-2.539063 2.457031-6.6875 2.234375-8.917969-.117188-1.117187-.152344-2.671875-.191406-4.316406l-.007813-.359375c-.15625-7.496094-.355469-16.816406-5.910156-19.3125l-1.070313-.480469-.101562-1.167968c-.324219-3.640626-.644532-7.53125-.972656-11.894532l-.164063-2.164062 24.398437.136718-.621093 2.472657c-.058594.230469-.085938.410156-.089844.5625l-.570313 42.539062c-.007812.542969.199219 1.054688.578126 1.445313.382812.390625.890624.609375 1.429687.617187 1.136719 0 2.050781-.902343 2.0625-2.007812l.5625-42.570313c.003906-.15625-.019531-.316406-.074219-.523437l-.667968-2.523438 91.042968.484375c2.921875.007813 6.167969.179688 7.734375 2.089844 1.15625 1.398438 1.292969 3.625 1.34375 5.976562.609375 28.105469-.96875 56.535157-4.695312 84.496094l-.253907 1.890625zm-62.367188-74.015625c-6.386719 2.195312-10.863281 8.246094-10.691406 14.496094.222656 8.269531 8 14.242187 12.179687 17.449218l11.460938 8.808594c2.832031 2.175781 6.65625 5.105469 11.152344 5.496094.351562.023437.722656.042968 1.097656.042968 4.234375 0 8.539062-2.128906 13.152344-6.503906 7.558594-7.179687 13.0625-16.273437 15.914062-26.292968.910156-3.191407 1.832032-7.394532.851563-11.632813-1.066407-4.628906-4.363281-8.195313-8.394531-9.078125-.933594-.203125-1.839844-.308594-2.695313-.308594-5.945313 0-9.351563 5.054688-11.839844 8.742188-2.09375 3.089844-4.023437 5.941406-6.707031 6.324218l-.140625.019532-.195313.003906c-1.125 0-2.351562-.742188-5.25-3.171875-1.363281-1.15625-2.761718-2.34375-4.234374-3.046875-3.15625-1.511719-6.515626-2.3125-9.71875-2.3125-1.960938 0-3.863282.292969-5.648438.871094zm0 0" fill="#288fc9"/><path d="m294.71875 325.210938c-1.128906 0-2.230469-.019532-3.292969-.050782-8.675781-.261718-19.648437-1.386718-27.535156-7.832031-6.425781-5.234375-10.585937-14.171875-11.421875-24.527344-.082031-1.011719-.132812-2.023437-.152344-3.011719l-.066406-3.3125 2.960938 1.484376c11.878906 5.957031 25.414062 9.105468 39.144531 9.105468 12.332031 0 24.640625-2.578125 35.597656-7.453125l3.117187-1.390625-.3125 3.398438c-.109374 1.21875-.25 2.335937-.417968 3.417968-1.640625 10.71875-6.707032 19.640626-13.890625 24.46875-7.574219 5.109376-17.171875 5.703126-23.730469 5.703126zm0 0" fill="#288fc9"/><path d="m294.351562 293.019531c-14.472656 0-28.53125-3.617187-40.660156-10.457031l-1.136718-.644531.128906-1.296875c.433594-4.324219 1.140625-8.570313 2.074218-13.613282l.355469-1.925781 1.933594.3125c3.394531.554688 7.097656 1.066407 11.3125 1.570313 10.625 1.273437 21.929687 2.515625 33.117187 2.515625 5.929688 0 11.386719-.347657 16.679688-1.0625 3.707031-.503907 7.4375-1.242188 11.082031-2.195313l2.21875-.578125.273438 2.273438c.648437 5.367187 1.109375 9.871093 1.253906 14.425781l.039063 1.273438-1.132813.574218c-11.34375 5.773438-24.324219 8.824219-37.535156 8.824219 0 .003906 0 .003906-.003907.003906zm0 0" fill="#288fc9"/><path d="m135.738281 442.75c-5.839843 0-11.625-.785156-17.191406-2.332031l-1.519531-.421875.058594-1.578125c.199218-5.375.402343-11.136719.570312-16.875l.09375-3.257813 2.863281 1.558594c7.855469 4.285156 16.6875 6.546875 25.53125 6.546875 2.675781 0 5.386719-.21875 8.058594-.652344l2.398437-.390625-.453124 14.097656-1.359376.425782c-6.132812 1.910156-12.539062 2.878906-19.050781 2.878906zm0 0" fill="#288fc9"/><path d="m139.921875 472.375c-7.816406 0-15.441406-1.347656-22.660156-4.007812l-1.363281-.503907.96875-23.667969 2.378906.59375c5.394531 1.339844 10.949218 2.019532 16.507812 2.019532 5.960938 0 11.90625-.777344 17.667969-2.3125l2.597656-.691406-.855469 26.792968-1.53125.328125c-4.460937.960938-9.074218 1.449219-13.710937 1.449219zm0 0" fill="#288fc9"/><path d="m114.679688 502.429688.054687-2.035157c.203125-7.328125.484375-15.453125.882813-25.5625l.101562-2.640625 2.515625.816406c6.988281 2.277344 14.289063 3.433594 21.703125 3.433594 4.238281 0 8.496094-.390625 12.652344-1.15625l2.441406-.453125-.878906 27.988281zm0 0" fill="#288fc9"/><path d="m220.703125 286.015625c-.015625-.539063-.25-1.0625-.644531-1.4375-.375-.351563-.863282-.542969-1.378906-.542969l-44.058594 1.921875 1.492187-16.167969 58.75 1.296876-.070312 2.027343c-1.484375 41.46875-.410157 83.484375 3.191406 124.882813l.1875 2.132812-2.140625.039063c-2.566406.050781-5.949219.179687-10.574219.371093l-2.035156.082032zm0 0" fill="#939baa"/><g fill="#231f20"><path d="m291.378906 184.941406c8.597656 0 17.714844-.472656 27.5-1.410156 9.5-.90625 17.402344-2.082031 25.101563-4.847656 9.371093-3.371094 16.847656-8.773438 21.628906-15.621094 5.589844-8.011719 6.925781-19.046875 3.410156-28.109375-2.902343-7.472656-8.714843-12.535156-16.375-14.257813-3.933593-.882812-7.988281-.804687-11.914062-.730468-2.492188.046875-4.84375.09375-7.03125-.105469-12.113281-1.105469-22.226563-1.660156-31.835938-1.753906-11.894531-.117188-23.882812.375-35.671875 1.460937-10.769531.992188-23.097656 2.652344-33.117187 9.796875-13.109375 9.351563-15.484375 24.296875-11.058594 33.617188 3.78125 7.972656 12.09375 13.492187 25.40625 16.875 13.40625 3.40625 27.746094 5.085937 43.957031 5.085937zm-62.082031-25.417968c-3.0625-6.449219-.734375-17.042969 8.457031-23.597657 8.382813-5.976562 19.457032-7.433593 29.175782-8.332031 11.519531-1.058594 23.246093-1.542969 34.851562-1.425781 9.386719.089843 19.296875.636719 31.183594 1.71875 2.632812.242187 5.320312.191406 7.917968.136719 3.605469-.066407 7.011719-.132813 9.992188.535156 6.351562 1.429687 9.28125 5.851562 10.625 9.308594 2.535156 6.527343 1.527344 14.800781-2.507812 20.582031-4.820313 6.910156-12.308594 10.691406-17.742188 12.644531-6.910156 2.484375-14.246094 3.558594-23.136719 4.410156-27.292969 2.617188-49.121093 1.511719-68.707031-3.464844-10.839844-2.753906-17.421875-6.847656-20.109375-12.515624zm0 0"/><path d="m324.113281 243.65625c5.898438-1.664062 13.261719-4.367188 17.875-10.578125 4.75-6.394531 5.308594-15.347656 1.390625-22.28125-5.011718-8.871094-17.085937-14.261719-35.886718-16.015625-16.773438-1.570312-33.988282.429688-49.785157 5.78125-11.121093 3.769531-17.449219 9.78125-18.300781 17.390625-.558594 4.992187 1.558594 10.394531 5.671875 14.457031 3.558594 3.515625 7.992187 5.632813 11.863281 7.242188 12.511719 5.199218 25.949219 7.828125 39.402344 7.828125 9.347656 0 18.707031-1.269531 27.769531-3.824219zm12.246094-28.894531c2.335937 4.140625 1.992187 9.691406-.84375 13.507812-3.160156 4.253907-8.921875 6.3125-13.589844 7.625-3.757812 1.0625-7.574219 1.875-11.417969 2.457031l.949219-35c16.390625 2.257813 22.609375 7.355469 24.902344 11.410157zm-85.617187 11.910156c-2.367188-2.339844-3.609376-5.261719-3.324219-7.820313.640625-5.6875 8.339843-9.117187 12.875-10.652343 1.816406-.613281 3.660156-1.164063 5.511719-1.683594l.527343 28.023437c-2.121093-.707031-4.226562-1.472656-6.296875-2.335937-3.152344-1.308594-6.71875-2.988281-9.292968-5.53125zm23.589843 10.15625c.058594-.289063.09375-.589844.089844-.898437l-.589844-31.359376c7.371094-1.484374 14.921875-2.246093 22.476563-2.246093 2.367187 0 4.738281.082031 7.105468.230469l-.996093 36.667968c-9.417969.601563-18.898438-.210937-28.085938-2.394531zm0 0"/><path d="m106.289062 241.542969 12.546876-13.703125c.902343-.984375 1.257812-2.355469.949218-3.65625-.308594-1.300782-1.246094-2.363282-2.496094-2.835938l-27.421874-10.378906c-.949219-.359375-2.210938-.945312-3.542969-1.5625-6.503907-3.019531-16.335938-7.578125-22.628907-1.242188-5.121093 5.15625-3.722656 14.648438-2.597656 22.277344.269532 1.816406.519532 3.535156.601563 4.761719l1.945312 29.183594c.097657 1.46875.988281 2.769531 2.320313 3.386719 1.335937.621093 2.902344.46875 4.089844-.402344l13.109374-9.628906 6.738282 21.609374c.390625 1.253907 1.371094 2.242188 2.621094 2.640626.402343.128906.816406.191406 1.226562.191406.871094 0 1.730469-.28125 2.441406-.824219l23.753906-18.09375c.894532-.683594 1.460938-1.707031 1.570313-2.828125.105469-1.121094-.261719-2.234375-1.015625-3.074219zm-10.402343 29.914062-6.707031-21.507812c-.386719-1.246094-1.351563-2.222657-2.589844-2.632813-.410156-.132812-.835938-.199218-1.257813-.199218-.847656 0-1.6875.265624-2.386719.78125l-11.746093 8.625-1.457031-21.855469c-.101563-1.546875-.378907-3.421875-.667969-5.402344-.675781-4.589844-1.9375-13.128906.339843-15.417969 2.3125-2.328125 9.324219.925782 13.515626 2.871094 1.46875.683594 2.859374 1.328125 4.085937 1.792969l21.855469 8.269531-11 12.011719c-1.398438 1.53125-1.410156 3.875-.023438 5.417969l13.730469 15.289062zm0 0"/><path d="m23.421875 150.589844 33.867187-1.414063c2.222657-.09375 3.953126-1.972656 3.859376-4.199219-.09375-2.222656-2.011719-3.964843-4.195313-3.859374l-33.867187 1.417968c-2.222657.09375-3.953126 1.972656-3.859376 4.195313.09375 2.167969 1.878907 3.863281 4.027344 3.863281.054688 0 .113282 0 .167969-.003906zm0 0"/><path d="m77 149.402344 11.296875.339844h.125c2.167969 0 3.960937-1.726563 4.027344-3.910157.066406-2.226562-1.683594-4.082031-3.910157-4.148437l-11.296874-.339844c-.042969 0-.082032 0-.125 0-2.167969 0-3.960938 1.722656-4.027344 3.910156-.066406 2.222656 1.683594 4.082032 3.910156 4.148438zm0 0"/><path d="m128.578125 141.984375-22.605469-1.023437c-2.230468-.082032-4.109375 1.621093-4.210937 3.84375-.097657 2.222656 1.621093 4.109374 3.847656 4.210937l22.601563 1.023437c.0625.003907.125.003907.1875.003907 2.140624 0 3.925781-1.6875 4.023437-3.847657.101563-2.226562-1.621094-4.109374-3.84375-4.210937zm0 0"/><path d="m25.496094 170.4375 24.761718-.433594c2.226563-.039062 4-1.875 3.960938-4.101562-.039062-2.226563-1.863281-3.984375-4.101562-3.960938l-24.761719.4375c-2.226563.039063-4 1.875-3.960938 4.101563.039063 2.199219 1.835938 3.960937 4.027344 3.960937.023437-.003906.046875-.003906.074219-.003906zm0 0"/><path d="m25.835938 185.664062 48.65625.285157h.027343c2.214844 0 4.015625-1.789063 4.03125-4.011719.011719-2.222656-1.78125-4.039062-4.007812-4.054688l-48.660157-.28125c-.007812 0-.015624 0-.023437 0-2.214844 0-4.019531 1.789063-4.03125 4.007813-.011719 2.226563 1.78125 4.039063 4.007813 4.054687zm0 0"/><path d="m85.261719 180.632812c-.027344 2.226563 1.757812 4.050782 3.984375 4.074219l19.554687.222657h.042969c2.207031 0 4.007812-1.773438 4.03125-3.984376.027344-2.226562-1.757812-4.054687-3.984375-4.078124l-19.554687-.21875c-2.246094-.023438-4.050782 1.757812-4.074219 3.984374zm0 0"/><path d="m40.742188 197.417969-16.074219-.421875c-2.222657-.0625-4.078125 1.695312-4.136719 3.921875-.058594 2.226562 1.699219 4.078125 3.921875 4.136719l16.078125.425781h.109375c2.175781 0 3.96875-1.734375 4.027344-3.925781.058593-2.226563-1.699219-4.078126-3.925781-4.136719zm0 0"/><path d="m464.640625 413.519531c13.636719-10.839843 20.429687-29.464843 16.644531-46.726562-3.222656-14.703125-14.117187-27.652344-28.429687-33.792969-13.421875-5.761719-28.816407-3.359375-42.238281 6.585938-.367188.269531-.707032.5625-1.0625.839843l-71.980469-40.574219c.296875-1.273437.554687-2.570312.757812-3.894531 1.578125-10.242187.449219-20.398437-.757812-30.25 10.832031-3.976562 20.105469-9.933593 26.980469-17.503906 7.3125-8.046875 15.117187-20.066406 19.261718-47.703125.265625.054688.539063.09375.816406.09375.414063 0 .835938-.0625 1.253907-.203125 17.140625-5.601563 29.632812-22.757813 29.707031-40.792969.070312-17.703125-11.839844-34.652344-28.449219-40.699218-.253906-6.21875-.609375-12.429688-1.085937-18.617188-1.296875-16.894531-3.667969-34.601562-12.164063-49.667969-9.574219-16.980469-23.441406-24.421875-35.203125-26.097656.003906-.765625-.199218-1.539063-.648437-2.230469-8.964844-13.816406-25.433594-22.554687-41.867188-22.2773435-16.46875.2812495-32.59375 9.5859375-41.078125 23.7031255-.542968.902343-.679687 1.933593-.480468 2.890624-13.183594 4.164063-24.429688 10.953126-32.660157 19.917969-16.800781 18.300781-20.871093 44.125-22.632812 66.972657-.328125 4.246093-.59375 8.503906-.808594 12.765624-16.851563 5.457032-29.027344 22.414063-28.582031 40.1875.449218 17.980469 13.761718 34.472657 31.15625 38.855469 2.128906 17.046875 6.507812 35.238281 19.632812 47.167969 7.855469 7.144531 17.683594 10.984375 28.089844 13.363281-1.660156 8.898438-3.15625 18.066407-2.390625 27.464844.148437 1.808594.390625 3.566406.703125 5.28125l-6.890625 3.683594c.078125-11.023438.332031-22.035157.769531-33.007813.042969-1.082031-.347656-2.132812-1.089844-2.921875-.742187-.789062-1.769531-1.246093-2.847656-1.269531l-58.386718-1.289062.519531-5.574219c.101562-1.140625-.28125-2.269531-1.050781-3.105469-.777344-.839844-1.835938-1.332031-3.011719-1.300781l-21.664063.253906c.914063-53.492187 1.378906-107.28125 1.367188-160.488281 0-1.09375-.441406-2.136719-1.226563-2.898438-.789062-.757812-1.84375-1.15625-2.941406-1.128906-30.675781 1.054688-61.996094.792969-92.285156.535156-12.871094-.105468-26.179688-.21875-39.257813-.226562-.089844 0-.179687 0-.273437 0-4.242188 0-12.589844.128906-16.664063 6.507812-2.238281 3.5-2.207031 7.550782-2.18749975 10.507813.49609375 69.1875 2.94921875 139.273437 7.29687475 208.316406.132813 2.109375 1.871094 3.757813 3.988281 3.777344l122.679688 1.082031c.367188.003906.757812.007812 1.160156.007812 3.71875 0 8.738282-.292968 12.511719-3.683593 4-3.589844 4.699219-8.8125 4.867187-13.617188l13.261719-.398437c1.679688-.046875 4.21875-.125 6.449219-1.746094 3.269531-2.382812 3.652344-6.503906 3.835938-8.484375l.015624-.152344 38.667969-1.6875.609375 25.761719-37.621094 22.359375c-7.964843-5.71875-17.699218-9.015625-27.816406-9.160156-.167968 0-.335937 0-.5 0-18.761718 0-35.417968 14.917969-40.109375 19.527343-10.46875 10.289063-15.980469 23.410157-15.117187 36 .765625 11.238282 6.742187 22.402344 16.390625 30.632813.378906.320313.765625.625 1.152343.933594-.347656 13.894531-.960937 28.792969-1.558593 43.222656-.617188 14.960937-1.257813 30.425781-1.597657 44.792969-.023437 1.078125.382813 2.125 1.132813 2.898437.75.777344 1.78125 1.21875 2.859375 1.230469l356.019531 3.53125h.039063c1.117187 0 2.1875-.464844 2.949218-1.28125.773438-.828125 1.160157-1.941406 1.070313-3.070312l-7.304687-92.183594c-.054688-.726563-.316407-1.382813-.695313-1.945313zm-28.148437 9.574219c7.246093-.003906 14.492187-1.664062 20.96875-4.96875l1.859374 23.488281c-10.613281 2.0625-21.699218.734375-31.535156-3.78125.589844-5.085937 1.265625-10.160156 2.007813-15.214843 2.21875.308593 4.457031.476562 6.699219.476562zm-9.605469 23.132812c7.179687 2.910157 14.859375 4.402344 22.570312 4.402344 3.507813 0 7.027344-.316406 10.503907-.933594l1.808593 22.824219c-11.976562 3.542969-24.65625 4.078125-36.898437 1.558594.414062-9.296875 1.089844-18.589844 2.015625-27.851563zm11.019531-108.222656c4.046875 0 8.019531.796875 11.773438 2.40625 11.964843 5.132813 21.054687 15.902344 23.730468 28.109375 3.328125 15.167969-3.613281 32.265625-16.5 40.652344-13.085937 8.519531-31.390625 7.742187-43.53125-1.84375-12.605468-9.960937-17.503906-28.964844-11.390625-44.207031 2.652344-6.613282 7.296875-12.511719 13.429688-17.058594 7.183593-5.324219 14.972656-8.058594 22.488281-8.058594zm-183.445312-45.359375c-.078126-.960937-.125-1.925781-.148438-2.890625 12.363281 6.199219 26.199219 9.3125 40.042969 9.3125 12.503906 0 25-2.546875 36.410156-7.625-.105469 1.101563-.230469 2.199219-.398437 3.289063-1.566407 10.171875-6.316407 18.597656-13.035157 23.125-7.648437 5.152343-17.835937 5.539062-25.847656 5.300781-8.355469-.246094-18.898437-1.308594-26.328125-7.371094-6-4.898437-9.898438-13.332031-10.695312-23.140625zm153.070312-133.078125c-.058594 14.125-9.492188 27.585938-22.644531 32.621094.164062-1.472656.320312-2.96875.46875-4.519531 1.847656-19.859375 2.539062-39.917969 2.074219-59.917969 11.902343 5.746094 20.15625 18.523438 20.101562 31.816406zm-111.21875-151.5c12.777344-.226562 25.488281 6.058594 33.238281 16.179688-7.539062.1875-15.027343-.441406-22.910156-1.117188-10.089844-.859375-20.523437-1.75-31.082031-.734375-3.730469.359375-7.359375.914063-10.890625 1.625 7.496093-9.601562 19.453125-15.742187 31.644531-15.953125zm-118.320312 158.179688c-.328126-13.039063 8.257812-25.945313 20.160156-31.214844-.652344 20.53125.015625 41.144531 1.996094 61.558594-12.375-4.527344-21.824219-17.140625-22.15625-30.34375zm30.582031 33.574218c-3.003907-28.398437-3.410157-57.234374-1.210938-85.707031 1.65625-21.472656 5.394531-45.648437 20.53125-62.136719 10.972657-11.953124 28.171875-19.605468 48.433594-21.554687 9.832031-.945313 19.894531-.085937 29.625.742187 8.558594.730469 17.40625 1.484376 26.261719 1.0625 10.347656-.496093 24.933594 5.109376 34.652344 22.347657 7.292968 12.933593 9.734374 27.871093 11.152343 46.324219 2.191407 28.558593 1.960938 57.5-.695312 86.023437-1.898438 20.386719-5.480469 41.265625-18.738281 55.863281-9.382813 10.328125-24.027344 17.300782-41.242188 19.625-15.625 2.113282-31.742188.515625-48.257812-1.460937-16.417969-1.96875-32.058594-4.550781-42.941407-14.445313-6.910156-6.28125-14.40625-16.746094-17.570312-46.683594zm59.554687 69.132813c11.253906 1.347656 22.339844 2.523437 33.34375 2.523437 5.671875 0 11.320313-.3125 16.953125-1.074218 3.898438-.527344 7.675781-1.285156 11.324219-2.242188.570312 4.71875 1.082031 9.5 1.238281 14.253906-23.605469 12.007813-53.234375 11.429688-76.3125-1.59375.445313-4.5 1.226563-9.007812 2.054688-13.453124 3.789062.625 7.609375 1.132812 11.398437 1.585937zm-2.011718 165.710937c.015624.003907.035156.003907.054687.003907 2.199219 0 4-1.773438 4.03125-3.980469l.566406-42.566406c.003907-.371094-.058593-.722656-.144531-1.0625l88.429688.472656c2.652343.015625 5.234374.1875 6.203124 1.359375.746094.90625.851563 2.839844.890626 4.746094.601562 28.054687-.972657 56.359375-4.683594 84.195312-24.632813-2.09375-49.460938-3.324219-74.285156-3.695312l.964843-29.476563c.070313-2.226562-1.675781-4.089844-3.902343-4.160156-2.21875-.074219-4.085938 1.671875-4.160157 3.894531l-.964843 29.652344c-15.929688-.117187-31.851563.117187-47.710938.710937l.402344-14.699218c9.628906-1.203125 19.375-1.175782 29.003906.117187 2.199219.296875 4.234375-1.25 4.53125-3.457031s-1.253906-4.238281-3.460938-4.535156c-9.902343-1.332032-19.929687-1.414063-29.851562-.277344l.386719-14.121094 8.386719-.335937c1.945312-.078125 5.203124-.210938 7.722656-2.4375 3.652344-3.222657 3.140625-8.230469 2.894531-10.636719-.113281-1.101562-.148437-2.753906-.183594-4.503906-.175781-8.058594-.390625-18.078125-7.09375-21.089844-.351562-3.953125-.671875-7.910156-.972656-11.871094l19.6875.105469c-.085937.320313-.148437.648437-.152344.992187l-.566406 42.570313c-.03125 2.230469 1.75 4.058594 3.976563 4.085937zm-40.585938-28.058593c4.695312-.195313 13.226562-.554688 15.527344-.335938 1.230468 1 1.941406 5.628907 2.117187 13.777344.042969 2 .078125 3.726563.222657 5.148437.3125 3.058594-.082032 3.664063-.207032 3.777344-.371094.324219-2.074218.394532-2.714844.421875l-19.640624.789063c-.039063.003906-.097657.003906-.160157.007812-.007812-.152344-.015625-.335937-.019531-.550781l-.472656-22.824219c1.40625-.046875 3.15625-.121094 5.347656-.210937zm-78.753906-308.878907c0 7.550782-.015625 15.113282-.039063 22.683594l-60.191406.769532.734375-22.847657c19.753906.082031 39.722656 0 59.496094-.605469zm-67.5625.566407-.738282 22.992187-30.664062.390625-.078125-23.628906c3.550781.027344 7.085937.054687 10.582031.085937 6.917969.058594 13.890625.117188 20.898438.160157zm-70.230469 2.398437c1.566406-2.453125 5.96875-2.789062 10.085937-2.789062h.050782c6.820312.007812 13.699218.039062 20.550781.085937l.078125 23.792969-31.519531.402344c-.058594-5.128906-.125-10.265625-.164063-15.382813-.019531-2.53125.039063-4.734375.917969-6.109375zm133.269531 209.667969c-1.714844 1.539063-4.859375 1.644531-8.214844 1.609375l-118.925781-1.046875c-3.710937-59.890625-5.984375-120.539063-6.796875-180.675781l138.394532-1.773438c-.207032 56.296875-.925782 113.023438-2.148438 169.148438-.136719.421875-.21875.867187-.203125 1.332031.011719.328125.070313.644531.15625.945313-.011719.519531-.023437 1.042968-.035156 1.5625-.078125 3.5625-.316407 7.183593-2.226563 8.898437zm25.238282-16.296875c-.3125.171875-1.46875.207031-1.964844.222656l-12.839844.386719c.230469-10.832031.445312-21.6875.640625-32.554687l17.425781-.203126-2.730468 29.457032c-.175782 1.914062-.410157 2.539062-.53125 2.691406zm9.328124-10.207031 1.113282-12.03125 54.859375 1.210937c-1.484375 41.605469-.402344 83.671875 3.203125 125.136719-2.582032.050781-6.011719.175781-10.625.367187l-2.671875-112.574218c-.023438-1.082032-.484375-2.109375-1.277344-2.847656-.789063-.738282-1.835937-1.125-2.929687-1.082032zm38.746094 41.429687 1.746094 73.53125c-.136719 0-.261719 0-.363281 0-.296875-.066406-.640625-.101562-.921875-.097656-2.210938.023438-3.992188 1.820312-3.992188 4.03125 0 .027344 0 .054688.003906.082031l.558594 26.972657c.03125 1.488281.101563 4.972656 2.941406 7.074218 1.617188 1.199219 3.429688 1.382813 4.734376 1.382813.332031 0 .632812-.011719.890624-.023438l3.179688-.128906-1.113281 40.734375c-.03125 1.117188.402343 2.199219 1.195312 2.984375.796875.78125 1.859375 1.203125 3 1.15625 45.570313-1.898437 91.71875-.816406 137.15625 3.207031.121094.011719.238281.019532.359375.019532 1.988282 0 3.707032-1.464844 3.988282-3.472657 4.140624-29.476562 5.917968-59.515625 5.277343-89.273437-.050781-2.457032-.140625-6.566406-2.730469-9.707032-3.503906-4.242187-9.277343-4.273437-12.378906-4.289062l-115.960937-.617188c-.007813 0-.015625 0-.019531 0-.183594 0-.355469.027344-.527344.050782-1.535156-22.433594-2.332032-44.996094-2.375-67.519532.136718-.054687.273437-.113281.40625-.183593l8.6875-4.644531c2.355468 6.296874 6 11.601562 10.746094 15.476562 9.3125 7.597656 21.558593 8.898438 31.1875 9.183594 1.140624.035156 2.324218.054687 3.535156.054687 8.578125 0 18.683594-1.089843 27.054687-6.726562 5.691407-3.832031 10.246094-9.714844 13.226563-16.851563l68.265625 38.480469c-3.789063 4.15625-6.785157 8.871094-8.824219 13.949219-7.390625 18.429687-1.425781 41.445312 13.878906 53.535156 4.042969 3.191406 8.648438 5.578125 13.527344 7.15625-4.050781 27.273438-5.9375 55.042969-5.570312 82.605469l-256.058594-2.539063 2.375-75.234375c14.113281-4.828125 25.851562-15.71875 31.351562-29.457031 6.265625-15.640625 3.910156-34.375-6.003906-47.726562-1.179688-1.59375-2.46875-3.09375-3.839844-4.511719zm-97.339844 134.597656c.179688-4.351562.359376-8.75.535157-13.148437 5.554687 1.382813 11.273437 2.082031 16.992187 2.082031 6.128906 0 12.253906-.804687 18.179688-2.390625l-.714844 22.542969c-11.652344 2.507812-24.078125 1.636719-35.265625-2.476562.089844-2.210938.179687-4.414063.273437-6.609376zm-16.003906-75.671874c-.6875-10.089844 4.070313-21.191407 12.726563-29.699219h.003906c8.503906-8.355469 21.984375-17.214844 34.46875-17.214844h.371094c12.585937.179687 24.449219 6.152344 31.738281 15.96875 8.277344 11.152344 10.238281 26.824219 4.992188 39.925781-5.21875 13.03125-17.117188 23.042969-31.050782 26.128906-13.648437 3.023438-28.84375-.832031-39.664062-10.0625-8.011719-6.832031-12.964844-15.960937-13.585938-25.046874zm43.917969 44.175781c2.8125 0 5.617187-.222657 8.382813-.675781l-.324219 10.25c-11.335938 3.53125-23.675781 3.710937-35.117188.527343.214844-5.695312.40625-11.351562.566407-16.886719 8.117187 4.414063 17.335937 6.785157 26.492187 6.785157zm-28.527344 46.523437c7.179688 2.339844 14.753907 3.53125 22.324219 3.53125 4.367188 0 8.734375-.402344 13.019531-1.195312l-.742187 23.554687-35.476563-.351562c.222657-8.296875.535157-16.910157.875-25.539063zm306.789063 28.589844c-.097656-7.078125-.042969-14.167969.15625-21.257812 5.171875.976562 10.402344 1.46875 15.632812 1.46875 7.488282 0 14.964844-1.011719 22.226563-3l1.835937 23.183593zm0 0"/><path d="m299.191406 439.34375 11.464844 8.808594c2.996094 2.300781 7.097656 5.453125 12.199219 5.894531.425781.035156.847656.054687 1.269531.054687 4.773438 0 9.539062-2.320312 14.527344-7.054687 7.820312-7.425781 13.515625-16.832031 16.464844-27.199219.972656-3.421875 1.957031-7.953125.878906-12.625-1.238282-5.375-5.128906-9.53125-9.917969-10.585937-9.019531-1.980469-13.597656 4.792969-16.628906 9.273437-1.804688 2.671875-3.507813 5.195313-5.324219 5.457032-.675781.101562-3.027344-1.863282-4.019531-2.703126-1.457031-1.230468-2.964844-2.503906-4.660157-3.316406-5.609374-2.6875-11.597656-3.230468-16.84375-1.535156-.003906 0-.003906 0-.003906 0-7.363281 2.378906-12.566406 9.335938-12.367187 16.542969.25 9.222656 8.519531 15.574219 12.960937 18.988281zm1.886719-27.859375c3.234375-1.042969 7.199219-.628906 10.886719 1.136719.761718.367187 1.867187 1.300781 2.9375 2.203125 2.707031 2.289062 6.085937 5.144531 10.367187 4.523437 5.351563-.765625 8.277344-5.097656 10.859375-8.921875 3.296875-4.878906 4.863282-6.648437 8.21875-5.914062 1.707032.375 3.265625 2.234375 3.792969 4.519531.515625 2.25.277344 4.90625-.777344 8.609375-2.554687 8.980469-7.488281 17.125-14.261719 23.558594-3.609374 3.429687-6.828124 5.046875-9.554687 4.8125-2.546875-.21875-5.015625-1.976563-7.976563-4.253907l-11.464843-8.808593c-4.675781-3.59375-9.679688-7.847657-9.816407-12.816407-.097656-3.585937 2.882813-7.386718 6.789063-8.648437zm0 0"/></g></svg>